<?xml version="1.0" encoding="utf-8"?>
<!-- Generator: Adobe Illustrator 18.0.0, SVG Export Plug-In . SVG Version: 6.00 Build 0)  -->
<!DOCTYPE svg PUBLIC "-//W3C//DTD SVG 1.1//EN" "http://www.w3.org/Graphics/SVG/1.1/DTD/svg11.dtd">
<svg version="1.1" id="Layer_1" xmlns="http://www.w3.org/2000/svg" xmlns:xlink="http://www.w3.org/1999/xlink" x="0px" y="0px"
	 viewBox="0 0 64 64" enable-background="new 0 0 64 64" xml:space="preserve">
<g>
	<g>
		<g>
			<path fill="#8E8E93" d="M32,0c17.7,0,32,14.3,32,32S49.7,64,32,64S0,49.7,0,32S14.3,0,32,0z"/>
		</g>
	</g>
	<g>
		<g>
			<g>
				<path fill="#FFFFFF" d="M41.7,31.3c0-5.1,4.1-7.5,4.3-7.6c-2.3-3.5-5.9-3.9-7.2-4c-3-0.3-6,1.8-7.5,1.8c-1.6,0-4-1.8-6.5-1.8
					c-3.3,0.1-6.4,2-8.1,5c-3.5,6.2-0.9,15.2,2.5,20.2c1.7,2.4,3.6,5.2,6.2,5.1c2.5-0.1,3.4-1.6,6.5-1.6c3,0,3.9,1.6,6.5,1.6
					c2.7,0,4.4-2.4,6-4.9c1.9-2.8,2.7-5.5,2.7-5.7C46.9,39.3,41.8,37.3,41.7,31.3z"/>
			</g>
			<g>
				<path fill="#FFFFFF" d="M36.8,16.4c1.3-1.7,2.3-4,2-6.4c-2,0.1-4.4,1.4-5.8,3c-1.2,1.5-2.4,3.9-2.1,6.2
					C33.1,19.4,35.4,18.1,36.8,16.4z"/>
			</g>
		</g>
	</g>
</g>
</svg>
